<?xml version="1.0" encoding="UTF-8"?> <svg xmlns="http://www.w3.org/2000/svg" width="148" height="148" viewBox="0 0 148 148" fill="none"> <path d="M30.7239 111.679C22.1553 116.628 16 112.504 16 105.167C16 97.3574 16 73.924 16 73.924C16 73.924 16 50.4905 16 42.6807C16 35.3444 22.1515 31.2198 30.7239 36.1693C44.0694 43.876 84.1021 67.0039 84.1021 67.0039C89.425 70.0782 89.425 77.7659 84.1021 80.8402C84.1021 80.844 44.0694 103.972 30.7239 111.679Z" fill="#00C1FF"></path> <path d="M74.7874 111.672C66.2188 116.622 60.0635 112.497 60.0635 105.161C60.0635 97.351 60.0635 73.9176 60.0635 73.9176C60.0635 73.9176 60.0635 50.4842 60.0635 42.6743C60.0635 35.338 66.215 31.2135 74.7874 36.1629C87.8389 43.7016 126.993 66.3216 126.993 66.3216C132.839 69.6976 132.839 78.1376 126.993 81.5136C126.989 81.5136 87.8389 104.134 74.7874 111.672Z" fill="#BCEC30"></path> <mask id="mask0_20441_2218" style="mask-type:alpha" maskUnits="userSpaceOnUse" x="60" y="34" width="72" height="80"> <path d="M74.7884 111.673C66.2198 116.622 60.0645 112.497 60.0645 105.161C60.0645 97.3513 60.0645 73.9179 60.0645 73.9179C60.0645 73.9179 60.0645 50.4844 60.0645 42.6746C60.0645 35.3382 66.216 31.2137 74.7884 36.1632C87.8399 43.7019 126.994 66.3219 126.994 66.3219C132.84 69.6979 132.84 78.1379 126.994 81.5139C126.99 81.5139 87.8399 104.134 74.7884 111.673Z" fill="#6FE4FF"></path> </mask> <g mask="url(#mask0_20441_2218)"> <g filter="url(#filter0_f_20441_2218)"> <path d="M30.7279 111.679C22.1592 116.629 16.0039 112.504 16.0039 105.168C16.0039 97.3581 16.0039 73.9247 16.0039 73.9247C16.0039 73.9247 16.0039 50.4913 16.0039 42.6814C16.0039 35.3451 22.1554 31.2206 30.7279 36.17C44.0733 43.8767 84.106 67.0047 84.106 67.0047C89.4289 70.079 89.4289 77.7666 84.106 80.8409C84.106 80.8447 44.0733 103.973 30.7279 111.679Z" fill="#99D100"></path> </g> </g> <defs> <filter id="filter0_f_20441_2218" x="10.2803" y="28.2834" width="83.542" height="91.2825" filterUnits="userSpaceOnUse" color-interpolation-filters="sRGB"> <feFlood flood-opacity="0" result="BackgroundImageFix"></feFlood> <feBlend mode="normal" in="SourceGraphic" in2="BackgroundImageFix" result="shape"></feBlend> <feGaussianBlur stdDeviation="2.86182" result="effect1_foregroundBlur_20441_2218"></feGaussianBlur> </filter> </defs> </svg> 